<svg id="SvgjsSvg1001" width="679" height="767" xmlns="http://www.w3.org/2000/svg" version="1.1" xmlns:xlink="http://www.w3.org/1999/xlink" xmlns:svgjs="http://svgjs.com/svgjs"><defs id="SvgjsDefs1002"></defs><g id="SvgjsG1008" transform="translate(25,99)"><path id="SvgjsPath1009" d="M 0 0L 146 0L 146 643L 0 643Z" stroke="rgba(33,41,48,1)" stroke-width="2" fill-opacity="1" fill="#ffffff"></path><g id="SvgjsG1010"><text id="SvgjsText1011" font-family="微软雅黑" text-anchor="middle" font-size="26px" width="126px" fill="#323232" font-weight="400" align="middle" lineHeight="125%" anchor="middle" family="微软雅黑" size="26px" weight="400" font-style="" opacity="1" y="298.75" transform="rotate(0)"><tspan id="SvgjsTspan1012" dy="32" x="73"><tspan id="SvgjsTspan1013" style="text-decoration:;">client</tspan></tspan></text></g></g><g id="SvgjsG1014" transform="translate(508,99)"><path id="SvgjsPath1015" d="M 0 0L 146 0L 146 643L 0 643Z" stroke="rgba(33,41,48,1)" stroke-width="2" fill-opacity="1" fill="#ffffff"></path><g id="SvgjsG1016"><text id="SvgjsText1017" font-family="微软雅黑" text-anchor="middle" font-size="26px" width="126px" fill="#323232" font-weight="400" align="middle" lineHeight="125%" anchor="middle" family="微软雅黑" size="26px" weight="400" font-style="" opacity="1" y="298.75" transform="rotate(0)"><tspan id="SvgjsTspan1018" dy="32" x="73"><tspan id="SvgjsTspan1019" style="text-decoration:;">server</tspan></tspan></text></g></g><g id="SvgjsG1020" transform="translate(192.5,143)"><path id="SvgjsPath1021" d="M 0 19.8L 264 19.8L 264 0L 294 30L 264 60L 264 40.2L 0 40.2L 0 19.8Z" stroke="rgba(33,41,48,1)" stroke-width="2" fill-opacity="1" fill="#ffffff"></path><g id="SvgjsG1022"><text id="SvgjsText1023" font-family="微软雅黑" text-anchor="middle" font-size="13px" width="294px" fill="#323232" font-weight="400" align="middle" lineHeight="125%" anchor="middle" family="微软雅黑" size="13px" weight="400" font-style="" opacity="1" y="19.375" transform="rotate(0)"></text></g></g><g id="SvgjsG1024" transform="translate(245.5,117)"><path id="SvgjsPath1025" d="M 0 0L 188 0L 188 40L 0 40Z" stroke="none" fill="none"></path><g id="SvgjsG1026"><text id="SvgjsText1027" font-family="微软雅黑" text-anchor="middle" font-size="18px" width="188px" fill="#323232" font-weight="400" align="middle" lineHeight="125%" anchor="middle" family="微软雅黑" size="18px" weight="400" font-style="" opacity="1" y="4.25" transform="rotate(0)"><tspan id="SvgjsTspan1028" dy="22" x="94"><tspan id="SvgjsTspan1029" style="text-decoration:;">SYN=1,seq=10010</tspan></tspan></text></g></g><g id="SvgjsG1030" transform="translate(245.5,25)"><path id="SvgjsPath1031" d="M 0 0L 100 0L 100 40L 0 40Z" stroke="none" fill="none"></path><g id="SvgjsG1032"><text id="SvgjsText1033" font-family="微软雅黑" text-anchor="middle" font-size="13px" width="100px" fill="#323232" font-weight="400" align="middle" lineHeight="125%" anchor="middle" family="微软雅黑" size="13px" weight="400" font-style="" opacity="1" y="9.375" transform="rotate(0)"></text></g></g><g id="SvgjsG1034" transform="translate(192.5,390.5)"><path id="SvgjsPath1035" d="M 0 30L 30 0L 30 19.8L 294 19.8L 294 40.2L 30 40.2L 30 60L 0 30Z" stroke="rgba(33,41,48,1)" stroke-width="2" fill-opacity="1" fill="#ffffff"></path><g id="SvgjsG1036"><text id="SvgjsText1037" font-family="微软雅黑" text-anchor="middle" font-size="13px" width="294px" fill="#323232" font-weight="400" align="middle" lineHeight="125%" anchor="middle" family="微软雅黑" size="13px" weight="400" font-style="" opacity="1" y="19.375" transform="rotate(0)"></text></g></g><g id="SvgjsG1038" transform="translate(192.5,645)"><path id="SvgjsPath1039" d="M 0 19.8L 264 19.8L 264 0L 294 30L 264 60L 264 40.2L 0 40.2L 0 19.8Z" stroke="rgba(33,41,48,1)" stroke-width="2" fill-opacity="1" fill="#ffffff"></path><g id="SvgjsG1040"><text id="SvgjsText1041" font-family="微软雅黑" text-anchor="middle" font-size="13px" width="294px" fill="#323232" font-weight="400" align="middle" lineHeight="125%" anchor="middle" family="微软雅黑" size="13px" weight="400" font-style="" opacity="1" y="19.375" transform="rotate(0)"></text></g></g><g id="SvgjsG1042" transform="translate(245.5,619)"><path id="SvgjsPath1043" d="M 0 0L 188 0L 188 40L 0 40Z" stroke="none" fill="none"></path><g id="SvgjsG1044"><text id="SvgjsText1045" font-family="微软雅黑" text-anchor="middle" font-size="18px" width="188px" fill="#323232" font-weight="400" align="middle" lineHeight="125%" anchor="middle" family="微软雅黑" size="18px" weight="400" font-style="" opacity="1" y="4.25" transform="rotate(0)"><tspan id="SvgjsTspan1046" dy="22" x="94"><tspan id="SvgjsTspan1047" style="text-decoration:;">ACK=1,ack=20081</tspan></tspan></text></g></g><g id="SvgjsG1048" transform="translate(245.5,352)"><path id="SvgjsPath1049" d="M 0 0L 188 0L 188 40L 0 40Z" stroke="none" fill="none"></path><g id="SvgjsG1050"><text id="SvgjsText1051" font-family="微软雅黑" text-anchor="middle" font-size="18px" width="188px" fill="#323232" font-weight="400" align="middle" lineHeight="150%" anchor="middle" family="微软雅黑" size="18px" weight="400" font-style="" opacity="1" y="-13.5" transform="rotate(0)"><tspan id="SvgjsTspan1052" dy="27" x="94"><tspan id="SvgjsTspan1053" style="text-decoration:;">SYN=1,seq=20080</tspan></tspan><tspan id="SvgjsTspan1054" dy="27" x="94"><tspan id="SvgjsTspan1055" style="text-decoration:;">ACK=1,ack=10010+1</tspan></tspan></text></g></g></svg>