<svg id="SvgjsSvg1056" width="688.5" height="767" xmlns="http://www.w3.org/2000/svg" version="1.1" xmlns:xlink="http://www.w3.org/1999/xlink" xmlns:svgjs="http://svgjs.com/svgjs"><defs id="SvgjsDefs1057"></defs><g id="SvgjsG1058" transform="translate(25,99)"><path id="SvgjsPath1059" d="M 0 0L 146 0L 146 643L 0 643Z" stroke="rgba(33,41,48,1)" stroke-width="2" fill-opacity="1" fill="#ffffff"></path><g id="SvgjsG1060"><text id="SvgjsText1061" font-family="微软雅黑" text-anchor="middle" font-size="26px" width="126px" fill="#323232" font-weight="400" align="middle" lineHeight="125%" anchor="middle" family="微软雅黑" size="26px" weight="400" font-style="" opacity="1" y="298.75" transform="rotate(0)"><tspan id="SvgjsTspan1062" dy="32" x="73"><tspan id="SvgjsTspan1063" style="text-decoration:;">client</tspan></tspan></text></g></g><g id="SvgjsG1064" transform="translate(508,99)"><path id="SvgjsPath1065" d="M 0 0L 152 0L 152 643L 0 643Z" stroke="rgba(33,41,48,1)" stroke-width="2" fill-opacity="1" fill="#ffffff"></path><g id="SvgjsG1066"><text id="SvgjsText1067" font-family="微软雅黑" text-anchor="middle" font-size="26px" width="132px" fill="#323232" font-weight="400" align="middle" lineHeight="125%" anchor="middle" family="微软雅黑" size="26px" weight="400" font-style="" opacity="1" y="298.75" transform="rotate(0)"><tspan id="SvgjsTspan1068" dy="32" x="76"><tspan id="SvgjsTspan1069" style="text-decoration:;">server</tspan></tspan></text></g></g><g id="SvgjsG1070" transform="translate(192.5,143)"><path id="SvgjsPath1071" d="M 0 19.8L 264 19.8L 264 0L 294 30L 264 60L 264 40.2L 0 40.2L 0 19.8Z" stroke="rgba(33,41,48,1)" stroke-width="2" fill-opacity="1" fill="#ffffff"></path><g id="SvgjsG1072"><text id="SvgjsText1073" font-family="微软雅黑" text-anchor="middle" font-size="13px" width="294px" fill="#323232" font-weight="400" align="middle" lineHeight="125%" anchor="middle" family="微软雅黑" size="13px" weight="400" font-style="" opacity="1" y="19.375" transform="rotate(0)"></text></g></g><g id="SvgjsG1074" transform="translate(245.5,117)"><path id="SvgjsPath1075" d="M 0 0L 188 0L 188 40L 0 40Z" stroke="none" fill="none"></path><g id="SvgjsG1076"><text id="SvgjsText1077" font-family="微软雅黑" text-anchor="middle" font-size="18px" width="188px" fill="#323232" font-weight="400" align="middle" lineHeight="125%" anchor="middle" family="微软雅黑" size="18px" weight="400" font-style="" opacity="1" y="4.25" transform="rotate(0)"><tspan id="SvgjsTspan1078" dy="22" x="94"><tspan id="SvgjsTspan1079" style="text-decoration:;">FIN=1,seq=25400</tspan></tspan></text></g></g><g id="SvgjsG1080" transform="translate(245.5,25)"><path id="SvgjsPath1081" d="M 0 0L 100 0L 100 40L 0 40Z" stroke="none" fill="none"></path><g id="SvgjsG1082"><text id="SvgjsText1083" font-family="微软雅黑" text-anchor="middle" font-size="13px" width="100px" fill="#323232" font-weight="400" align="middle" lineHeight="125%" anchor="middle" family="微软雅黑" size="13px" weight="400" font-style="" opacity="1" y="9.375" transform="rotate(0)"></text></g></g><g id="SvgjsG1084" transform="translate(192.5,281)"><path id="SvgjsPath1085" d="M 0 30L 30 0L 30 19.8L 294 19.8L 294 40.2L 30 40.2L 30 60L 0 30Z" stroke="rgba(33,41,48,1)" stroke-width="2" fill-opacity="1" fill="#ffffff"></path><g id="SvgjsG1086"><text id="SvgjsText1087" font-family="微软雅黑" text-anchor="middle" font-size="13px" width="294px" fill="#323232" font-weight="400" align="middle" lineHeight="125%" anchor="middle" family="微软雅黑" size="13px" weight="400" font-style="" opacity="1" y="19.375" transform="rotate(0)"></text></g></g><g id="SvgjsG1088" transform="translate(192.5,645)"><path id="SvgjsPath1089" d="M 0 19.8L 264 19.8L 264 0L 294 30L 264 60L 264 40.2L 0 40.2L 0 19.8Z" stroke="rgba(33,41,48,1)" stroke-width="2" fill-opacity="1" fill="#ffffff"></path><g id="SvgjsG1090"><text id="SvgjsText1091" font-family="微软雅黑" text-anchor="middle" font-size="13px" width="294px" fill="#323232" font-weight="400" align="middle" lineHeight="125%" anchor="middle" family="微软雅黑" size="13px" weight="400" font-style="" opacity="1" y="19.375" transform="rotate(0)"></text></g></g><g id="SvgjsG1092" transform="translate(245.5,619)"><path id="SvgjsPath1093" d="M 0 0L 188 0L 188 40L 0 40Z" stroke="none" fill="none"></path><g id="SvgjsG1094"><text id="SvgjsText1095" font-family="微软雅黑" text-anchor="middle" font-size="18px" width="188px" fill="#323232" font-weight="400" align="middle" lineHeight="125%" anchor="middle" family="微软雅黑" size="18px" weight="400" font-style="" opacity="1" y="4.25" transform="rotate(0)"><tspan id="SvgjsTspan1096" dy="22" x="94"><tspan id="SvgjsTspan1097" style="text-decoration:;">ACK=1,ack=30100+1</tspan></tspan></text></g></g><g id="SvgjsG1098" transform="translate(245.5,244)"><path id="SvgjsPath1099" d="M 0 0L 188 0L 188 40L 0 40Z" stroke="none" fill="none"></path><g id="SvgjsG1100"><text id="SvgjsText1101" font-family="微软雅黑" text-anchor="middle" font-size="18px" width="188px" fill="#323232" font-weight="400" align="middle" lineHeight="150%" anchor="middle" family="微软雅黑" size="18px" weight="400" font-style="" opacity="1" y="0" transform="rotate(0)"><tspan id="SvgjsTspan1102" dy="27" x="94"><tspan id="SvgjsTspan1103" style="text-decoration:;">ACK=1,ack=25400+1</tspan></tspan></text></g></g><g id="SvgjsG1104" transform="translate(192.5,517)"><path id="SvgjsPath1105" d="M 0 30L 30 0L 30 19.8L 294 19.8L 294 40.2L 30 40.2L 30 60L 0 30Z" stroke="rgba(33,41,48,1)" stroke-width="2" fill-opacity="1" fill="#ffffff"></path><g id="SvgjsG1106"><text id="SvgjsText1107" font-family="微软雅黑" text-anchor="middle" font-size="13px" width="294px" fill="#323232" font-weight="400" align="middle" lineHeight="125%" anchor="middle" family="微软雅黑" size="13px" weight="400" font-style="" opacity="1" y="19.375" transform="rotate(0)"></text></g></g><g id="SvgjsG1108" transform="translate(245.5,480)"><path id="SvgjsPath1109" d="M 0 0L 188 0L 188 40L 0 40Z" stroke="none" fill="none"></path><g id="SvgjsG1110"><text id="SvgjsText1111" font-family="微软雅黑" text-anchor="middle" font-size="18px" width="188px" fill="#323232" font-weight="400" align="middle" lineHeight="150%" anchor="middle" family="微软雅黑" size="18px" weight="400" font-style="" opacity="1" y="0" transform="rotate(0)"><tspan id="SvgjsTspan1112" dy="27" x="94"><tspan id="SvgjsTspan1113" style="text-decoration:;">FIN=1,seq=30100</tspan></tspan></text></g></g><g id="SvgjsG1114" transform="translate(40,143)"><path id="SvgjsPath1115" d="M 0 0L 120 0L 120 40L 0 40Z" stroke="none" fill="none"></path><g id="SvgjsG1116"><text id="SvgjsText1117" font-family="微软雅黑" text-anchor="middle" font-size="15px" width="120px" fill="#323232" font-weight="400" align="middle" lineHeight="125%" anchor="middle" family="微软雅黑" size="15px" weight="400" font-style="" opacity="1" y="-1.875" transform="rotate(0)"><tspan id="SvgjsTspan1118" dy="18" x="60"><tspan id="SvgjsTspan1119" style="text-decoration:;">FIN1：请求断开</tspan></tspan><tspan id="SvgjsTspan1120" dy="18" x="60"><tspan id="SvgjsTspan1121" style="text-decoration:;">seq：当前序号</tspan></tspan></text></g></g><g id="SvgjsG1122" transform="translate(524,284)"><path id="SvgjsPath1123" d="M 0 0L 120 0L 120 40L 0 40Z" stroke="none" fill="none"></path><g id="SvgjsG1124"><text id="SvgjsText1125" font-family="微软雅黑" text-anchor="middle" font-size="15px" width="120px" fill="#323232" font-weight="400" align="middle" lineHeight="125%" anchor="middle" family="微软雅黑" size="15px" weight="400" font-style="" opacity="1" y="-1.875" transform="rotate(0)"><tspan id="SvgjsTspan1126" dy="18" x="60"><tspan id="SvgjsTspan1127" style="text-decoration:;">ACK1：收到断开</tspan></tspan><tspan id="SvgjsTspan1128" dy="18" x="60"><tspan id="SvgjsTspan1129" style="text-decoration:;">ack：断开时序号</tspan></tspan></text></g></g><g id="SvgjsG1130" transform="translate(504.5,517)"><path id="SvgjsPath1131" d="M 0 0L 159 0L 159 40L 0 40Z" stroke="none" fill="none"></path><g id="SvgjsG1132"><text id="SvgjsText1133" font-family="微软雅黑" text-anchor="middle" font-size="15px" width="159px" fill="#323232" font-weight="400" align="middle" lineHeight="125%" anchor="middle" family="微软雅黑" size="15px" weight="400" font-style="" opacity="1" y="-1.875" transform="rotate(0)"><tspan id="SvgjsTspan1134" dy="18" x="79.5"><tspan id="SvgjsTspan1135" style="text-decoration:;">FIN1：我也请求断开</tspan></tspan><tspan id="SvgjsTspan1136" dy="18" x="79.5"><tspan id="SvgjsTspan1137" style="text-decoration:;">seq：断开时序号</tspan></tspan></text></g></g><g id="SvgjsG1138" transform="translate(40,655)"><path id="SvgjsPath1139" d="M 0 0L 120 0L 120 40L 0 40Z" stroke="none" fill="none"></path><g id="SvgjsG1140"><text id="SvgjsText1141" font-family="微软雅黑" text-anchor="middle" font-size="15px" width="120px" fill="#323232" font-weight="400" align="middle" lineHeight="125%" anchor="middle" family="微软雅黑" size="15px" weight="400" font-style="" opacity="1" y="-1.875" transform="rotate(0)"><tspan id="SvgjsTspan1142" dy="18" x="60"><tspan id="SvgjsTspan1143" style="text-decoration:;">ACK1：收到断开</tspan></tspan><tspan id="SvgjsTspan1144" dy="18" x="60"><tspan id="SvgjsTspan1145" style="text-decoration:;">ack：断开时序号</tspan></tspan></text></g></g></svg>